<svg width="32" height="32" viewBox="0 0 32 32" fill="none" xmlns="http://www.w3.org/2000/svg">
<path d="M16 0C7.168 0 0 7.168 0 16C0 24.832 7.168 32 16 32C24.832 32 32 24.832 32 16C32 7.168 24.832 0 16 0ZM8.112 26.048C8.8 24.608 12.992 23.2 16 23.2C19.008 23.2 23.216 24.608 23.888 26.048C21.712 27.776 18.976 28.8 16 28.8C13.024 28.8 10.288 27.776 8.112 26.048ZM26.176 23.728C23.888 20.944 18.336 20 16 20C13.664 20 8.112 20.944 5.824 23.728C4.192 21.584 3.2 18.912 3.2 16C3.2 8.944 8.944 3.2 16 3.2C23.056 3.2 28.8 8.944 28.8 16C28.8 18.912 27.808 21.584 26.176 23.728V23.728ZM16 6.4C12.896 6.4 10.4 8.896 10.4 12C10.4 15.104 12.896 17.6 16 17.6C19.104 17.6 21.6 15.104 21.6 12C21.6 8.896 19.104 6.4 16 6.4ZM16 14.4C14.672 14.4 13.6 13.328 13.6 12C13.6 10.672 14.672 9.6 16 9.6C17.328 9.6 18.4 10.672 18.4 12C18.4 13.328 17.328 14.4 16 14.4Z" fill="#002F52"/>
</svg>
