<svg width="35" height="32" viewBox="0 0 35 32" fill="none" xmlns="http://www.w3.org/2000/svg">
<path d="M25.4087 0C22.3743 0 19.4621 1.41253 17.5613 3.64469C15.6604 1.41253 12.7482 0 9.71384 0C4.34272 0 0.122559 4.22016 0.122559 9.59128C0.122559 16.1831 6.05171 21.5542 15.0326 29.7155L17.5613 32L20.0899 29.6981C29.0708 21.5542 34.9999 16.1831 34.9999 9.59128C34.9999 4.22016 30.7798 0 25.4087 0ZM17.7356 27.1172L17.5613 27.2916L17.3869 27.1172C9.08605 19.6011 3.6103 14.6311 3.6103 9.59128C3.6103 6.10354 6.2261 3.48774 9.71384 3.48774C12.3994 3.48774 15.0152 5.21417 15.9395 7.60327H19.2005C20.1073 5.21417 22.7231 3.48774 25.4087 3.48774C28.8964 3.48774 31.5122 6.10354 31.5122 9.59128C31.5122 14.6311 26.0365 19.6011 17.7356 27.1172Z" fill="url(#paint0_linear_611_513)"/>
<defs>
<linearGradient id="paint0_linear_611_513" x1="14.6952" y1="-3.84001" x2="64.9448" y2="3.41189" gradientUnits="userSpaceOnUse">
<stop stop-color="#002F52"/>
<stop offset="1" stop-color="#326589"/>
</linearGradient>
</defs>
</svg>
